<svg version="1.1" id="Layer_1" xmlns="http://www.w3.org/2000/svg" xmlns:xlink="http://www.w3.org/1999/xlink" x="0px" y="0px"
	 width="100%" viewBox="0 0 622 546" enable-background="new 0 0 622 546" xml:space="preserve">
<path fill="#FFFFFE" opacity="1.000000" stroke="none" 
	d="
M380.000000,547.000000 
	C253.333328,547.000000 127.166664,547.000000 1.000000,547.000000 
	C1.000000,365.000000 1.000000,183.000000 1.000000,1.000000 
	C208.333328,1.000000 415.666656,1.000000 623.000000,1.000000 
	C623.000000,183.000000 623.000000,365.000000 623.000000,547.000000 
	C542.166687,547.000000 461.333344,547.000000 380.000000,547.000000 
M361.036743,541.589905 
	C362.359131,541.413086 363.681488,541.236328 365.276978,541.447876 
	C365.937195,541.191101 366.597382,540.934326 368.060516,540.452393 
	C485.101166,521.285034 578.986511,424.839081 595.186401,307.457947 
	C598.715088,281.890076 597.607483,256.244080 597.856384,230.607803 
	C597.929993,223.025497 595.296021,220.435455 587.631531,220.433502 
	C515.651733,220.415100 443.671295,220.235489 371.692352,220.483505 
	C319.381165,220.663742 277.042267,261.797546 275.805267,312.996216 
	C275.591797,321.832886 277.894257,324.141754 286.968018,324.142212 
	C349.783722,324.145416 412.599426,324.139862 475.415131,324.149170 
	C485.373169,324.150665 488.727570,328.905945 484.460052,337.780273 
	C452.400879,404.447601 399.645905,440.455414 325.410583,442.024780 
	C268.118958,443.235931 210.781174,442.293610 153.463989,442.245026 
	C140.681931,442.234192 128.124069,443.619049 116.238609,448.490234 
	C81.894798,462.565826 62.062824,488.193146 55.745201,524.969482 
	C55.808132,525.645569 55.871063,526.321655 55.910763,527.924316 
	C55.807426,530.254700 55.620171,532.584900 55.616692,534.915405 
	C55.606777,541.556763 58.293930,544.245300 65.012032,544.354492 
	C68.177826,544.405945 71.345161,544.367004 74.511787,544.363220 
	C162.008881,544.257812 249.505966,544.151611 337.396759,544.485535 
	C338.266113,544.277466 339.135498,544.069336 340.822754,543.752991 
	C343.882202,543.507935 346.941681,543.262878 350.313141,543.424561 
	C350.877686,543.222961 351.442230,543.021423 352.745850,542.682190 
	C354.498779,542.478821 356.251740,542.275452 358.264771,542.461182 
	C358.931671,542.240601 359.598572,542.020020 361.036743,541.589905 
M312.588959,112.037308 
	C322.563477,111.616669 332.537201,110.855873 342.512634,110.832397 
	C394.508667,110.710007 446.505280,110.842575 498.501190,110.697922 
	C505.793579,110.677635 513.175659,110.165794 520.358704,108.950577 
	C563.392029,101.670311 596.997559,63.289661 597.899536,20.750071 
	C598.111877,10.736211 595.718994,8.271930 585.725281,8.271591 
	C501.731232,8.268750 417.737030,8.174620 333.743286,8.338364 
	C312.906921,8.378983 292.206146,10.395030 271.810791,15.022986 
	C219.966797,26.787029 175.121277,51.423851 137.281311,88.632751 
	C118.907501,106.700134 103.441452,127.125504 90.840363,149.672256 
	C70.272751,186.473267 58.422844,225.904648 56.163582,267.971954 
	C55.172764,286.420929 55.801746,304.958984 55.780670,323.456726 
	C55.773560,329.699127 58.308239,332.201965 64.624893,332.219604 
	C81.789970,332.267609 98.959061,332.433197 116.119621,332.142395 
	C136.911209,331.790131 153.521759,314.836761 154.207626,294.032501 
	C154.475998,285.892487 154.941055,277.728088 155.918518,269.647614 
	C160.677322,230.307770 176.969360,196.240982 204.108505,167.535934 
	C233.414978,136.538483 269.494537,118.274536 312.588959,112.037308 
z"/>
<path fill="#242021" opacity="1.000000" stroke="none" 
	d="
M56.164322,524.739319 
	C62.062824,488.193146 81.894798,462.565826 116.238609,448.490234 
	C128.124069,443.619049 140.681931,442.234192 153.463989,442.245026 
	C210.781174,442.293610 268.118958,443.235931 325.410583,442.024780 
	C399.645905,440.455414 452.400879,404.447601 484.460052,337.780273 
	C488.727570,328.905945 485.373169,324.150665 475.415131,324.149170 
	C412.599426,324.139862 349.783722,324.145416 286.968018,324.142212 
	C277.894257,324.141754 275.591797,321.832886 275.805267,312.996216 
	C277.042267,261.797546 319.381165,220.663742 371.692352,220.483505 
	C443.671295,220.235489 515.651733,220.415100 587.631531,220.433502 
	C595.296021,220.435455 597.929993,223.025497 597.856384,230.607803 
	C597.607483,256.244080 598.715088,281.890076 595.186401,307.457947 
	C578.986511,424.839081 485.101166,521.285034 367.376282,540.421875 
	C366.129333,540.614075 365.566589,540.836792 365.003845,541.059448 
	C363.681488,541.236328 362.359131,541.413086 360.374573,541.539001 
	C359.143127,541.682800 358.573914,541.877441 358.004669,542.072144 
	C356.251740,542.275452 354.498779,542.478821 352.217285,542.569397 
	C351.126190,542.643677 350.563660,542.830750 350.001129,543.017822 
	C346.941681,543.262878 343.882202,543.507935 340.207977,543.618164 
	C338.729797,543.670715 337.866425,543.858154 337.003052,544.045532 
	C249.505966,544.151611 162.008881,544.257812 74.511787,544.363220 
	C71.345161,544.367004 68.177826,544.405945 65.012032,544.354492 
	C58.293930,544.245300 55.606777,541.556763 55.616692,534.915405 
	C55.620171,532.584900 55.807426,530.254700 56.129364,527.225586 
	C56.286751,525.930969 56.225536,525.335144 56.164322,524.739319 
z"/>
<path fill="#D0E752" opacity="1.000000" stroke="none" 
	d="
M312.143890,112.070656 
	C269.494537,118.274536 233.414978,136.538483 204.108505,167.535934 
	C176.969360,196.240982 160.677322,230.307770 155.918518,269.647614 
	C154.941055,277.728088 154.475998,285.892487 154.207626,294.032501 
	C153.521759,314.836761 136.911209,331.790131 116.119621,332.142395 
	C98.959061,332.433197 81.789970,332.267609 64.624893,332.219604 
	C58.308239,332.201965 55.773560,329.699127 55.780670,323.456726 
	C55.801746,304.958984 55.172764,286.420929 56.163582,267.971954 
	C58.422844,225.904648 70.272751,186.473267 90.840363,149.672256 
	C103.441452,127.125504 118.907501,106.700134 137.281311,88.632751 
	C175.121277,51.423851 219.966797,26.787029 271.810791,15.022986 
	C292.206146,10.395030 312.906921,8.378983 333.743286,8.338364 
	C417.737030,8.174620 501.731232,8.268750 585.725281,8.271591 
	C595.718994,8.271930 598.111877,10.736211 597.899536,20.750071 
	C596.997559,63.289661 563.392029,101.670311 520.358704,108.950577 
	C513.175659,110.165794 505.793579,110.677635 498.501190,110.697922 
	C446.505280,110.842575 394.508667,110.710007 342.512634,110.832397 
	C332.537201,110.855873 322.563477,111.616669 312.143890,112.070656 
z"/>
<path fill="#A6A4A5" opacity="1.000000" stroke="none" 
	d="
M337.199890,544.265503 
	C337.866425,543.858154 338.729797,543.670715 339.799011,543.672241 
	C339.135498,544.069336 338.266113,544.277466 337.199890,544.265503 
z"/>
<path fill="#A6A4A5" opacity="1.000000" stroke="none" 
	d="
M55.954762,524.854370 
	C56.225536,525.335144 56.286751,525.930969 56.140984,526.762268 
	C55.871063,526.321655 55.808132,525.645569 55.954762,524.854370 
z"/>
<path fill="#A6A4A5" opacity="1.000000" stroke="none" 
	d="
M365.140411,541.253662 
	C365.566589,540.836792 366.129333,540.614075 366.974854,540.534424 
	C366.597382,540.934326 365.937195,541.191101 365.140411,541.253662 
z"/>
<path fill="#A6A4A5" opacity="1.000000" stroke="none" 
	d="
M358.134705,542.266663 
	C358.573914,541.877441 359.143127,541.682800 359.988892,541.643799 
	C359.598572,542.020020 358.931671,542.240601 358.134705,542.266663 
z"/>
<path fill="#A6A4A5" opacity="1.000000" stroke="none" 
	d="
M350.157135,543.221191 
	C350.563660,542.830750 351.126190,542.643677 351.847748,542.638245 
	C351.442230,543.021423 350.877686,543.222961 350.157135,543.221191 
z"/>
</svg>